<svg width="48" height="48" viewBox="0 0 48 48" fill="none" xmlns="http://www.w3.org/2000/svg">
<g id="api-svgrepo-com 1">
<path id="Vector" d="M24 40.8758C33.4379 40.8758 41.0888 40.2727 41.0888 39.5288C41.0888 38.7848 33.4379 38.1817 24 38.1817C14.5621 38.1817 6.91125 38.7848 6.91125 39.5288C6.91125 40.2727 14.5621 40.8758 24 40.8758Z" fill="#EDB937"/>
<path id="Vector_2" d="M6.1858 6.30206H41.8142C42.9848 6.30206 43.9423 7.25991 43.9423 8.43047V30.3778H4.05768V8.43047C4.05768 7.25991 5.01524 6.30206 6.1858 6.30206Z" fill="#666666"/>
<path id="Vector_3" d="M5.50266 28.9325H42.4971V8.43018C42.4971 8.05715 42.1869 7.74702 41.8139 7.74702H6.18554C5.81279 7.74702 5.50238 8.05715 5.50238 8.43018V28.9326L5.50266 28.9325Z" fill="#15BDB2"/>
<g id="Group">
<path id="Vector_4" d="M43.9423 30.3778V32.7052C43.9423 33.8761 42.8866 34.8336 41.5961 34.8336H6.40359C5.11312 34.8336 4.0574 33.8761 4.0574 32.7052V30.3778H43.942H43.9423Z" fill="white"/>
<path id="Vector_5" d="M13.5143 21.9656H12.3084L12.1021 20.5859H10.6356L10.4292 21.9656H9.33188L10.5487 14.3607H12.2977L13.5145 21.9656H13.5143ZM10.7873 19.5537H11.9389L11.3633 15.7077L10.7873 19.5537Z" fill="white"/>
<path id="Vector_6" d="M15.8285 14.3607C16.4297 14.3607 16.8768 14.5201 17.1704 14.8387C17.4637 15.1574 17.6104 15.6247 17.6104 16.2404V17.2289C17.6104 17.8446 17.4638 18.3116 17.1704 18.6304C16.8771 18.949 16.4297 19.1084 15.8285 19.1084H15.2636V21.9655H14.0685V14.3606H15.8285V14.3607ZM15.2636 15.4471V18.0219H15.8285C16.0168 18.0219 16.1617 17.9713 16.263 17.8697C16.3643 17.7683 16.415 17.58 16.415 17.3048V16.1641C16.415 15.8889 16.3643 15.7006 16.263 15.5992C16.1615 15.4979 16.0166 15.4473 15.8285 15.4473H15.2636V15.4471Z" fill="white"/>
<path id="Vector_7" d="M18.1641 14.3607H19.3592V21.9656H18.1641V14.3607Z" fill="white"/>
<path id="Vector_8" d="M34.457 19.36L34.8342 17.922L33.9804 17.5868C34.0092 17.2645 34.0074 16.9399 33.9753 16.6175L34.8259 16.2734L34.4336 14.8395L33.5277 14.9762C33.393 14.6855 33.2297 14.4051 33.0376 14.1388L33.602 13.4161L32.545 12.3703L31.8282 12.9423C31.56 12.7529 31.2777 12.5923 30.9861 12.4608L31.1134 11.5534L29.6753 11.1761L29.3402 12.0299C29.0179 12.0011 28.693 12.0026 28.3708 12.0351L28.027 11.1845L26.5929 11.5767L26.7296 12.4826L26.7301 12.4824C26.4396 12.617 26.1591 12.7805 25.8927 12.9726L25.17 12.408L24.1242 13.4649L24.6962 14.1817C24.5068 14.45 24.3462 14.7321 24.2147 15.0239L23.3073 14.8966L22.93 16.3346L23.7838 16.6698C23.755 16.9921 23.7568 17.3167 23.789 17.6391L22.9384 17.9829L23.3306 19.417L24.2362 19.2803C24.371 19.5708 24.5343 19.8514 24.7264 20.1177L24.162 20.8404L25.2187 21.8862L25.9356 21.3142C26.2035 21.5036 26.4859 21.6642 26.7777 21.7957L26.6504 22.7029L28.0884 23.0803L28.4236 22.2265C28.7459 22.2553 29.0706 22.2535 29.393 22.2214L29.737 23.072L31.1709 22.6797L31.0342 21.7741C31.325 21.6394 31.6053 21.4761 31.8716 21.284L32.5943 21.8483L33.6401 20.7917L33.0681 20.0749C33.2575 19.8069 33.4181 19.5246 33.5497 19.2327L34.457 19.36ZM30.5475 18.7764C29.6369 19.6964 28.1533 19.704 27.2334 18.7937C26.3135 17.8831 26.3058 16.3996 27.2162 15.4796C28.1268 14.5596 29.6104 14.5521 30.5302 15.4624C31.4502 16.373 31.4578 17.8566 30.5475 18.7764Z" fill="white"/>
</g>
<path id="Vector_9" d="M28.8817 14.102C27.2105 14.102 25.8555 15.4567 25.8555 17.1281C25.8555 18.7993 27.2103 20.1543 28.8817 20.1543C30.5528 20.1543 31.9078 18.7995 31.9078 17.1281C31.9078 15.4569 30.5531 14.102 28.8817 14.102ZM30.5475 18.7766C29.6369 19.6966 28.1533 19.7042 27.2334 18.7939C26.3135 17.8834 26.3058 16.3998 27.2162 15.4798C28.1268 14.5598 29.6104 14.5523 30.5303 15.4626C31.4502 16.3732 31.4578 17.8568 30.5475 18.7766Z" fill="#ECF0F1"/>
<path id="Vector_10" d="M39.0994 22.7334C39.1086 22.5633 39.0999 22.3913 39.0727 22.22L39.5643 21.9399L39.0058 20.7788L38.4761 20.9689C38.3602 20.8395 38.2319 20.7247 38.094 20.6248L38.2438 20.0791L37.0278 19.6529L36.7875 20.1619C36.6173 20.1527 36.4454 20.1613 36.274 20.1886L35.9941 19.6973L34.8329 20.2559L35.023 20.7853C34.8939 20.9012 34.7788 21.0295 34.679 21.1674L34.1333 21.0176L33.7071 22.2337L34.216 22.4741C34.2069 22.644 34.2153 22.8162 34.2426 22.9873L33.7509 23.2673L34.3094 24.4285L34.8391 24.2384C34.9552 24.3675 35.0835 24.4826 35.2212 24.5825L35.0717 25.1282L36.2877 25.5544L36.528 25.0451C36.6979 25.0545 36.8701 25.0459 37.0415 25.0186L37.3213 25.5102L38.4825 24.9518L38.2924 24.4223C38.4217 24.3062 38.5366 24.1778 38.6364 24.0399L39.1822 24.1898L39.6083 22.9737L39.0994 22.7334ZM37.5686 23.505C37.0709 24.0082 36.2596 24.012 35.7565 23.5144C35.2538 23.0166 35.2495 22.2053 35.7472 21.7023C36.2449 21.1993 37.0562 21.1953 37.5592 21.6929C38.0622 22.1908 38.0663 23.0018 37.5686 23.505Z" fill="white"/>
<path id="Vector_11" d="M36.6577 20.7787C35.6497 20.7787 34.8326 21.5958 34.8326 22.6038C34.8326 23.6118 35.6497 24.4289 36.6577 24.4289C37.6657 24.4289 38.4829 23.6118 38.4829 22.6038C38.4829 21.5958 37.6657 20.7787 36.6577 20.7787ZM37.5684 23.505C37.0707 24.008 36.2594 24.012 35.7566 23.5144C35.2536 23.0167 35.2493 22.2053 35.747 21.7026V21.7023C36.245 21.1991 37.056 21.195 37.5591 21.6929C38.062 22.1905 38.0662 23.0018 37.5684 23.505Z" fill="#ECF0F1"/>
<path id="Vector_12" d="M24 33.2451C24.4046 33.2451 24.7326 32.9171 24.7326 32.5125C24.7326 32.1079 24.4046 31.7799 24 31.7799C23.5954 31.7799 23.2674 32.1079 23.2674 32.5125C23.2674 32.9171 23.5954 33.2451 24 33.2451Z" fill="#B6B6B8"/>
<path id="Vector_13" d="M28.5998 38.1816L31.9837 39.2658H16.0159L18.7462 38.1816V34.8336H28.5996V38.1816H28.5998Z" fill="#C2C2C4"/>
<path id="Vector_14" d="M28.5998 38.1816L18.7463 34.8336H28.5998V38.1816Z" fill="#B6B6B8"/>
<path id="Vector_15" d="M18.7462 38.1817H28.5997L31.9836 39.2658V39.7327H23.9997H16.0157V39.2658L18.746 38.1817H18.7462Z" fill="#ECF0F1"/>
</g>
</svg>
