<svg width="48" height="48" viewBox="0 0 48 48" fill="none" xmlns="http://www.w3.org/2000/svg">
<g id="profile-user-svgrepo-com (1) 1">
<path id="Vector" d="M24 48C37.2548 48 48 37.2548 48 24C48 10.7452 37.2548 0 24 0C10.7452 0 0 10.7452 0 24C0 37.2548 10.7452 48 24 48Z" fill="#FC6F58"/>
<path id="Vector_2" d="M47.6356 28.1849L34.6666 15.2158L18.9899 30.7879L13.4679 37.3333L24.133 47.9984C35.9008 47.9344 45.663 39.4022 47.6356 28.1849Z" fill="#F1543F"/>
<path id="Vector_3" d="M30.1174 10.6667H13.4679V37.3333H34.6667V15.2158L30.1174 10.6667Z" fill="white"/>
<path id="Vector_4" d="M34.6667 15.2158L30.1175 10.6667H22.1684V37.3333H34.6667V15.2158Z" fill="#E6F3FF"/>
<path id="Vector_5" d="M30.1175 15.216L34.6667 15.2158L30.1175 10.6667V15.216Z" fill="#CFDBE6"/>
<path id="Vector_6" d="M22.2222 23.7228C24.1845 23.7228 25.7753 22.132 25.7753 20.1697C25.7753 18.2073 24.1845 16.6165 22.2222 16.6165C20.2599 16.6165 18.6691 18.2073 18.6691 20.1697C18.6691 22.132 20.2599 23.7228 22.2222 23.7228Z" fill="#26BEBE"/>
<path id="Vector_7" d="M14.8939 31.3837C14.8939 27.3364 18.1748 24.0554 22.2222 24.0554C26.2696 24.0554 29.5505 27.3364 29.5505 31.3837H14.8939Z" fill="#4CDBC4"/>
<path id="Vector_8" d="M22.2222 16.6163C22.2041 16.6163 22.1863 16.6174 22.1684 16.6176V23.7211C22.1863 23.7214 22.2041 23.7226 22.2222 23.7226C24.1846 23.7226 25.7753 22.1318 25.7753 20.1695C25.7753 18.2071 24.1846 16.6163 22.2222 16.6163Z" fill="#2C9984"/>
<path id="Vector_9" d="M22.2222 24.0556C22.2041 24.0556 22.1865 24.0569 22.1684 24.0569V31.3837H29.5506C29.5506 27.3366 26.2696 24.0556 22.2222 24.0556Z" fill="#3FC9AE"/>
<path id="Vector_10" d="M33.2385 28.5991L32.7498 28.4725C32.7377 28.333 32.7188 28.1948 32.6921 28.0586L33.1268 27.8028C33.3737 27.6573 33.4561 27.3393 33.3107 27.0922L32.5012 25.7171C32.3557 25.47 32.0377 25.3878 31.7905 25.5332L31.3559 25.789C31.2497 25.6997 31.138 25.6161 31.022 25.5379L31.1485 25.0492C31.2204 24.7717 31.0537 24.4885 30.7762 24.4166L29.2314 24.0166C28.9539 23.9447 28.6708 24.1115 28.5989 24.389L28.4724 24.8777C28.3329 24.8898 28.1947 24.9087 28.0584 24.9352L27.8026 24.5006C27.6571 24.2537 27.3391 24.1713 27.092 24.3167L25.7168 25.1262C25.4698 25.2717 25.3874 25.5897 25.5328 25.8368L25.7887 26.2715C25.6993 26.3777 25.6157 26.4892 25.5375 26.6054L25.0488 26.4788C24.7713 26.4069 24.4882 26.5737 24.4163 26.8512L24.0162 28.3959C23.9443 28.6734 24.1111 28.9566 24.3886 29.0285L24.8773 29.155C24.8894 29.2945 24.9083 29.4327 24.9349 29.5687L24.5003 29.8246C24.2533 29.9701 24.1709 30.2881 24.3163 30.5352L25.1259 31.9104C25.2714 32.1574 25.5893 32.2398 25.8365 32.0944L26.2711 31.8385C26.3773 31.9279 26.489 32.0115 26.605 32.0899L26.4785 32.5786C26.4066 32.8561 26.5734 33.1392 26.8509 33.2111L28.3956 33.6112C28.6731 33.6831 28.9562 33.5163 29.0281 33.2388L29.1547 32.7501C29.2942 32.738 29.4324 32.719 29.5686 32.6925L29.8244 33.1271C29.9699 33.3741 30.2879 33.4565 30.535 33.3111L31.9103 32.5015C32.1572 32.356 32.2396 32.038 32.0942 31.7909L31.8384 31.3563C31.9277 31.2501 32.0113 31.1384 32.0895 31.0223L32.5782 31.1489C32.8557 31.2208 33.1389 31.054 33.2108 30.7765L33.6108 29.2318C33.6828 28.9542 33.516 28.671 33.2385 28.5991ZM28.3187 30.726C27.2625 30.4525 26.6282 29.3747 26.9015 28.3187C27.1749 27.2627 28.2528 26.6282 29.3088 26.9017C30.365 27.1751 30.9993 28.253 30.726 29.309C30.4525 30.365 29.3747 30.9995 28.3187 30.726Z" fill="#324A5E"/>
</g>
</svg>
