<svg id="moonlight-svg-a-img2" xmlns="http://www.w3.org/2000/svg" xmlns:xlink="http://www.w3.org/1999/xlink" viewBox="0 0 1920 1080" shape-rendering="geometricPrecision" text-rendering="geometricPrecision"><style><![CDATA[#moonlight-svg-a-img2-stars {animation: moonlight-svg-a-img2-stars_c_o 8000ms linear infinite normal forwards}@keyframes moonlight-svg-a-img2-stars_c_o { 0% {opacity: 1;animation-timing-function: cubic-bezier(0.42,0,1,1)} 25% {opacity: 0.3;animation-timing-function: cubic-bezier(0.42,0,1,1)} 50% {opacity: 1;animation-timing-function: cubic-bezier(0.42,0,1,1)} 75% {opacity: 0.3;animation-timing-function: cubic-bezier(0.42,0,1,1)} 100% {opacity: 1}} #moonlight-svg-a-img2-tree3_tr {animation: moonlight-svg-a-img2-tree3_tr__tr 8000ms linear infinite normal forwards}@keyframes moonlight-svg-a-img2-tree3_tr__tr { 0% {transform: translate(1578px,896.943px) rotate(0deg);animation-timing-function: cubic-bezier(0.42,0,1,1)} 25% {transform: translate(1578px,896.943px) rotate(-5deg);animation-timing-function: cubic-bezier(0.42,0,1,1)} 75% {transform: translate(1578px,896.943px) rotate(5deg);animation-timing-function: cubic-bezier(0.42,0,1,1)} 100% {transform: translate(1578px,896.943px) rotate(0deg)}} #moonlight-svg-a-img2-tree2_tr {animation: moonlight-svg-a-img2-tree2_tr__tr 8000ms linear infinite normal forwards}@keyframes moonlight-svg-a-img2-tree2_tr__tr { 0% {transform: translate(1099.1px,917.931px) rotate(0deg);animation-timing-function: cubic-bezier(0.42,0,1,1)} 25% {transform: translate(1099.1px,917.931px) rotate(-5deg);animation-timing-function: cubic-bezier(0.42,0,1,1)} 75% {transform: translate(1099.1px,917.931px) rotate(5deg);animation-timing-function: cubic-bezier(0.42,0,1,1)} 100% {transform: translate(1099.1px,917.931px) rotate(0deg)}} #moonlight-svg-a-img2-tree1_tr {animation: moonlight-svg-a-img2-tree1_tr__tr 8000ms linear infinite normal forwards}@keyframes moonlight-svg-a-img2-tree1_tr__tr { 0% {transform: translate(659.500489px,1008.44px) rotate(0deg);animation-timing-function: cubic-bezier(0.42,0,1,1)} 25% {transform: translate(659.500489px,1008.44px) rotate(-5deg);animation-timing-function: cubic-bezier(0.42,0,1,1)} 75% {transform: translate(659.500489px,1008.44px) rotate(5deg);animation-timing-function: cubic-bezier(0.42,0,1,1)} 100% {transform: translate(659.500489px,1008.44px) rotate(0deg)}} #moonlight-svg-a-img2-small-leaf2_tr {animation: moonlight-svg-a-img2-small-leaf2_tr__tr 8000ms linear infinite normal forwards}@keyframes moonlight-svg-a-img2-small-leaf2_tr__tr { 0% {transform: translate(1329.713379px,1077.730319px) rotate(-28deg);animation-timing-function: cubic-bezier(0.42,0,1,1)} 25% {transform: translate(1329.713379px,1077.730319px) rotate(-56deg);animation-timing-function: cubic-bezier(0.42,0,1,1)} 75% {transform: translate(1329.713379px,1077.730319px) rotate(0deg);animation-timing-function: cubic-bezier(0.42,0,1,1)} 100% {transform: translate(1329.713379px,1077.730319px) rotate(-28deg)}} #moonlight-svg-a-img2-small-leaf1_tr {animation: moonlight-svg-a-img2-small-leaf1_tr__tr 8000ms linear infinite normal forwards}@keyframes moonlight-svg-a-img2-small-leaf1_tr__tr { 0% {transform: translate(856.207px,1079.02px) rotate(-28deg);animation-timing-function: cubic-bezier(0.42,0,1,1)} 25% {transform: translate(856.207px,1079.02px) rotate(-56deg);animation-timing-function: cubic-bezier(0.42,0,1,1)} 75% {transform: translate(856.207px,1079.02px) rotate(0deg);animation-timing-function: cubic-bezier(0.42,0,1,1)} 100% {transform: translate(856.207px,1079.02px) rotate(-28deg)}} #moonlight-svg-a-img2-small-leaf3_tr {animation: moonlight-svg-a-img2-small-leaf3_tr__tr 8000ms linear infinite normal forwards}@keyframes moonlight-svg-a-img2-small-leaf3_tr__tr { 0% {transform: translate(1753.874514px,1079.995117px) rotate(-28deg);animation-timing-function: cubic-bezier(0.42,0,1,1)} 25% {transform: translate(1753.874514px,1079.995117px) rotate(-56deg);animation-timing-function: cubic-bezier(0.42,0,1,1)} 75% {transform: translate(1753.874514px,1079.995117px) rotate(0deg);animation-timing-function: cubic-bezier(0.42,0,1,1)} 100% {transform: translate(1753.874514px,1079.995117px) rotate(-28deg)}} #moonlight-svg-a-img2-fire_tr {animation: moonlight-svg-a-img2-fire_tr__tr 8000ms linear infinite normal forwards}@keyframes moonlight-svg-a-img2-fire_tr__tr { 0% {transform: translate(157.4735px,1062.040353px) rotate(0deg);animation-timing-function: cubic-bezier(0.42,0,1,1)} 25% {transform: translate(157.4735px,1062.040353px) rotate(-5deg);animation-timing-function: cubic-bezier(0.42,0,1,1)} 75% {transform: translate(157.4735px,1062.040353px) rotate(5deg);animation-timing-function: cubic-bezier(0.42,0,1,1)} 100% {transform: translate(157.4735px,1062.040353px) rotate(0deg)}} #moonlight-svg-a-img2-fire-flame3_to {animation: moonlight-svg-a-img2-fire-flame3_to__to 8000ms linear infinite normal forwards}@keyframes moonlight-svg-a-img2-fire-flame3_to__to { 0% {transform: translate(146.348672px,991.662638px);animation-timing-function: cubic-bezier(0.42,0,1,1)} 37.5% {transform: translate(139.506661px,917.897527px)} 100% {transform: translate(139.506661px,917.897527px)}} #moonlight-svg-a-img2-fire-flame3 {animation: moonlight-svg-a-img2-fire-flame3_c_o 8000ms linear infinite normal forwards}@keyframes moonlight-svg-a-img2-fire-flame3_c_o { 0% {opacity: 1;animation-timing-function: cubic-bezier(0.42,0,1,1)} 37.5% {opacity: 0} 100% {opacity: 0}} #moonlight-svg-a-img2-fire-flame5_to {animation: moonlight-svg-a-img2-fire-flame5_to__to 8000ms linear infinite normal forwards}@keyframes moonlight-svg-a-img2-fire-flame5_to__to { 0% {transform: translate(170.340997px,992.126145px);animation-timing-function: cubic-bezier(0.42,0,1,1)} 37.5% {transform: translate(179.758502px,904.198901px)} 100% {transform: translate(179.758502px,904.198901px)}} #moonlight-svg-a-img2-fire-flame5 {animation: moonlight-svg-a-img2-fire-flame5_c_o 8000ms linear infinite normal forwards}@keyframes moonlight-svg-a-img2-fire-flame5_c_o { 0% {opacity: 1;animation-timing-function: cubic-bezier(0.42,0,1,1)} 37.5% {opacity: 0} 100% {opacity: 0}} #moonlight-svg-a-img2-fire-flame8_to {animation: moonlight-svg-a-img2-fire-flame8_to__to 8000ms linear infinite normal forwards}@keyframes moonlight-svg-a-img2-fire-flame8_to__to { 0% {transform: translate(179.897001px,1032.346967px);animation-timing-function: cubic-bezier(0.42,0,1,1)} 37.5% {transform: translate(200.187001px,888.35053px)} 100% {transform: translate(200.187001px,888.35053px)}} #moonlight-svg-a-img2-fire-flame8 {animation: moonlight-svg-a-img2-fire-flame8_c_o 8000ms linear infinite normal forwards}@keyframes moonlight-svg-a-img2-fire-flame8_c_o { 0% {opacity: 1;animation-timing-function: cubic-bezier(0.42,0,1,1)} 37.5% {opacity: 0} 100% {opacity: 0}} #moonlight-svg-a-img2-fire-flame4_to {animation: moonlight-svg-a-img2-fire-flame4_to__to 8000ms linear infinite normal forwards}@keyframes moonlight-svg-a-img2-fire-flame4_to__to { 0% {transform: translate(163.822504px,978.106016px);animation-timing-function: cubic-bezier(0.42,0,1,1)} 37.5% {transform: translate(167.658931px,910.189103px)} 100% {transform: translate(167.658931px,910.189103px)}} #moonlight-svg-a-img2-fire-flame4 {animation: moonlight-svg-a-img2-fire-flame4_c_o 8000ms linear infinite normal forwards}@keyframes moonlight-svg-a-img2-fire-flame4_c_o { 0% {opacity: 1;animation-timing-function: cubic-bezier(0.42,0,1,1)} 37.5% {opacity: 0} 100% {opacity: 0}} #moonlight-svg-a-img2-fire-flame7_to {animation: moonlight-svg-a-img2-fire-flame7_to__to 8000ms linear infinite normal forwards}@keyframes moonlight-svg-a-img2-fire-flame7_to__to { 0% {transform: translate(167.439px,986.6485px);animation-timing-function: cubic-bezier(0.42,0,1,1)} 37.5% {transform: translate(177.909505px,929.9995px)} 100% {transform: translate(177.909505px,929.9995px)}} #moonlight-svg-a-img2-fire-flame7 {animation: moonlight-svg-a-img2-fire-flame7_c_o 8000ms linear infinite normal forwards}@keyframes moonlight-svg-a-img2-fire-flame7_c_o { 0% {opacity: 1;animation-timing-function: cubic-bezier(0.42,0,1,1)} 37.5% {opacity: 0} 100% {opacity: 0}} #moonlight-svg-a-img2-fire-flame6_to {animation: moonlight-svg-a-img2-fire-flame6_to__to 8000ms linear infinite normal forwards}@keyframes moonlight-svg-a-img2-fire-flame6_to__to { 0% {transform: translate(175.805999px,1010.438721px);animation-timing-function: cubic-bezier(0.42,0,1,1)} 37.5% {transform: translate(189.490222px,886.772441px)} 100% {transform: translate(189.490222px,886.772441px)}} #moonlight-svg-a-img2-fire-flame6 {animation: moonlight-svg-a-img2-fire-flame6_c_o 8000ms linear infinite normal forwards}@keyframes moonlight-svg-a-img2-fire-flame6_c_o { 0% {opacity: 1;animation-timing-function: cubic-bezier(0.42,0,1,1)} 37.5% {opacity: 0} 100% {opacity: 0}} #moonlight-svg-a-img2-fire-flame1_to {animation: moonlight-svg-a-img2-fire-flame1_to__to 8000ms linear infinite normal forwards}@keyframes moonlight-svg-a-img2-fire-flame1_to__to { 0% {transform: translate(134.46556px,1048.475001px);animation-timing-function: cubic-bezier(0.42,0,1,1)} 37.5% {transform: translate(130.255664px,996.08603px)} 100% {transform: translate(130.255664px,996.08603px)}} #moonlight-svg-a-img2-fire-flame1 {animation: moonlight-svg-a-img2-fire-flame1_c_o 8000ms linear infinite normal forwards}@keyframes moonlight-svg-a-img2-fire-flame1_c_o { 0% {opacity: 1;animation-timing-function: cubic-bezier(0.42,0,1,1)} 37.5% {opacity: 0} 100% {opacity: 0}} #moonlight-svg-a-img2-fire-flame2_to {animation: moonlight-svg-a-img2-fire-flame2_to__to 8000ms linear infinite normal forwards}@keyframes moonlight-svg-a-img2-fire-flame2_to__to { 0% {transform: translate(134.465481px,1022.760013px);animation-timing-function: cubic-bezier(0.42,0,1,1)} 37.5% {transform: translate(121.11281px,942.447002px)} 100% {transform: translate(121.11281px,942.447002px)}} #moonlight-svg-a-img2-fire-flame2 {animation: moonlight-svg-a-img2-fire-flame2_c_o 8000ms linear infinite normal forwards}@keyframes moonlight-svg-a-img2-fire-flame2_c_o { 0% {opacity: 1;animation-timing-function: cubic-bezier(0.42,0,1,1)} 37.5% {opacity: 0} 100% {opacity: 0}} #moonlight-svg-a-img2-vector_37_tr {animation: moonlight-svg-a-img2-vector_37_tr__tr 8000ms linear infinite normal forwards}@keyframes moonlight-svg-a-img2-vector_37_tr__tr { 0% {transform: translate(1272.875px,198.372px) rotate(0deg);animation-timing-function: cubic-bezier(0.42,0,1,1)} 50% {transform: translate(1272.875px,198.372px) rotate(-55deg);animation-timing-function: cubic-bezier(0.42,0,1,1)} 100% {transform: translate(1272.875px,198.372px) rotate(0deg)}}]]></style><rect id="moonlight-svg-a-img2-rect1" width="1920" height="1080" rx="0" ry="0" fill="rgb(229,229,229)" stroke="none" stroke-width="1"/><g id="moonlight-svg-a-img2-g1" clip-path="url(#moonlight-svg-a-img2-clip0_0-1)"><g id="moonlight-svg-a-img2-undraw_moonlight_5ksn-1"><rect id="moonlight-svg-a-img2-rect2" width="1920" height="1080" rx="0" ry="0" transform="matrix(-1 0 0 1 1920 0)" fill="rgb(47,46,65)" stroke="none" stroke-width="1"/><path id="moonlight-svg-a-img2-vector" d="M960,0C1487.69,0,1915.93,482.745,1920,1080L0.000041,1080C4.07246,482.745,432.309,0,960,0Z" fill="rgb(47,46,65)" stroke="none" stroke-width="1"/><path id="moonlight-svg-a-img2-vector_2" d="M1515.17,619.538L1518.96,619.538L1518.96,621.685L1515.17,621.685L1515.17,619.538Z" fill="rgb(242,242,242)" stroke="none" stroke-width="1"/><g id="moonlight-svg-a-img2-stars"><path id="moonlight-svg-a-img2-vector_3" d="M1009.59,123.554C1004.36,123.554,1000.12,118.747,1000.12,112.818C1000.12,106.889,1004.36,102.082,1009.59,102.082C1014.82,102.082,1019.06,106.889,1019.06,112.818C1019.06,118.747,1014.82,123.554,1009.59,123.554Z" fill="rgb(242,242,242)" stroke="none" stroke-width="1"/><path id="moonlight-svg-a-img2-vector_4" d="M1306.88,471.387C1304.79,471.387,1303.09,469.464,1303.09,467.092C1303.09,464.721,1304.79,462.798,1306.88,462.798C1308.97,462.798,1310.67,464.721,1310.67,467.092C1310.67,469.464,1308.97,471.387,1306.88,471.387Z" fill="rgb(242,242,242)" stroke="none" stroke-width="1"/><path id="moonlight-svg-a-img2-vector_5" d="M748.273,673.216C746.181,673.216,744.486,671.293,744.486,668.921C744.486,666.55,746.181,664.627,748.273,664.627C750.364,664.627,752.06,666.55,752.06,668.921C752.06,671.293,750.364,673.216,748.273,673.216Z" fill="rgb(242,242,242)" stroke="none" stroke-width="1"/><path id="moonlight-svg-a-img2-vector_6" d="M1734.83,619.538C1732.74,619.538,1731.04,617.615,1731.04,615.243C1731.04,612.872,1732.74,610.949,1734.83,610.949C1736.92,610.949,1738.62,612.872,1738.62,615.243C1738.62,617.615,1736.92,619.538,1734.83,619.538Z" fill="rgb(242,242,242)" stroke="none" stroke-width="1"/><path id="moonlight-svg-a-img2-vector_7" d="M257.834,467.092C255.742,467.092,254.047,465.17,254.047,462.798C254.047,460.427,255.742,458.504,257.834,458.504C259.926,458.504,261.621,460.427,261.621,462.798C261.621,465.17,259.926,467.092,257.834,467.092Z" fill="rgb(242,242,242)" stroke="none" stroke-width="1"/><path id="moonlight-svg-a-img2-vector_8" d="M1473.52,512.182C1471.42,512.182,1469.73,510.259,1469.73,507.888C1469.73,505.516,1471.42,503.593,1473.52,503.593C1475.61,503.593,1477.3,505.516,1477.3,507.888C1477.3,510.259,1475.61,512.182,1473.52,512.182Z" fill="rgb(242,242,242)" stroke="none" stroke-width="1"/><path id="moonlight-svg-a-img2-vector_9" d="M852.42,426.297C850.328,426.297,848.633,424.375,848.633,422.003C848.633,419.631,850.328,417.709,852.42,417.709C854.512,417.709,856.207,419.631,856.207,422.003C856.207,424.375,854.512,426.297,852.42,426.297Z" fill="rgb(242,242,242)" stroke="none" stroke-width="1"/><path id="moonlight-svg-a-img2-vector_10" d="M727.443,117.112C725.352,117.112,723.656,115.19,723.656,112.818C723.656,110.446,725.352,108.524,727.443,108.524C729.535,108.524,731.23,110.446,731.23,112.818C731.23,115.19,729.535,117.112,727.443,117.112Z" fill="rgb(242,242,242)" stroke="none" stroke-width="1"/><path id="moonlight-svg-a-img2-vector_11" d="M1403.45,291.029L1407.24,291.029L1407.24,293.176L1403.45,293.176L1403.45,291.029Z" fill="rgb(242,242,242)" stroke="none" stroke-width="1"/><path id="moonlight-svg-a-img2-vector_12" d="M1130.78,535.8L1134.56,535.8L1134.56,537.947L1130.78,537.947L1130.78,535.8Z" fill="rgb(242,242,242)" stroke="none" stroke-width="1"/><path id="moonlight-svg-a-img2-vector_13" d="M407.427,630.273L411.214,630.273L411.214,632.42L407.427,632.42L407.427,630.273Z" fill="rgb(242,242,242)" stroke="none" stroke-width="1"/><path id="moonlight-svg-a-img2-vector_14" d="M632.764,301.764L636.551,301.764L636.551,303.911L632.764,303.911L632.764,301.764Z" fill="rgb(242,242,242)" stroke="none" stroke-width="1"/></g><path id="moonlight-svg-a-img2-vector_15" d="M1569.36,692.385L1578,692.385L1578,1079.32L1569.36,1079.32L1569.36,692.385Z" fill="rgb(108,99,255)" stroke="none" stroke-width="1"/><g id="moonlight-svg-a-img2-tree3_tr" transform="translate(1578,896.943) rotate(0)"><path id="moonlight-svg-a-img2-tree3" d="M1489.63,651.517C1489.08,786.818,1573.03,896.943,1573.03,896.943C1573.03,896.943,1657.88,787.701,1658.43,652.399C1658.98,517.098,1575.02,406.973,1575.02,406.973C1575.02,406.973,1490.18,516.215,1489.63,651.517Z" transform="translate(-1578,-896.942998)" fill="rgb(108,99,255)" stroke="none" stroke-width="1"/></g><path id="moonlight-svg-a-img2-vector_16" d="M655.9,784.19L662.564,784.19L662.564,1082.65L655.9,1082.65L655.9,784.19Z" fill="rgb(108,99,255)" stroke="none" stroke-width="1"/><path id="moonlight-svg-a-img2-vector_17" d="M1099.1,780.769L1105.76,780.769L1105.76,1079.23L1099.1,1079.23L1099.1,780.769Z" fill="rgb(108,99,255)" stroke="none" stroke-width="1"/><g id="moonlight-svg-a-img2-tree2_tr" transform="translate(1099.1,917.931) rotate(0)"><path id="moonlight-svg-a-img2-tree2" d="M1037.6,728.625C1037.18,832.988,1101.93,917.931,1101.93,917.931C1101.93,917.931,1167.38,833.668,1167.8,729.306C1168.22,624.943,1103.47,540,1103.47,540C1103.47,540,1038.03,624.262,1037.6,728.625Z" transform="translate(-1099.099999,-917.930999)" fill="rgb(108,99,255)" stroke="none" stroke-width="1"/></g><g id="moonlight-svg-a-img2-tree1_tr" transform="translate(659.500489,1008.44) rotate(0)"><g id="moonlight-svg-a-img2-tree1" transform="translate(-659.500489,-1008.439989)"><path id="moonlight-svg-a-img2-vector_18" d="M594.402,822.225C593.978,926.588,658.733,1011.53,658.733,1011.53C658.733,1011.53,724.175,927.268,724.599,822.906C725.023,718.543,660.269,633.6,660.269,633.6C660.269,633.6,594.826,717.863,594.402,822.225Z" fill="rgb(108,99,255)" stroke="none" stroke-width="1"/><path id="moonlight-svg-a-img2-vector_19" d="M612.814,923.18L724.164,807.089C724.464,812.306,724.621,817.579,724.599,822.906C724.175,927.268,658.733,1011.53,658.733,1011.53C639.679,984.8,624.207,955.03,612.814,923.18L612.814,923.18Z" fill="rgb(108,99,255)" stroke="none" stroke-width="1"/></g></g><g id="moonlight-svg-a-img2-g2"><g id="moonlight-svg-a-img2-small-leaf2_tr" transform="translate(1329.713379,1077.730319) rotate(-28)"><g id="moonlight-svg-a-img2-small-leaf2" transform="translate(-1329.713379,-1077.730317)"><path id="moonlight-svg-a-img2-vector_20" d="M1350.71,1052.7C1346.89,1068.69,1333.82,1078.59,1333.82,1078.59C1333.82,1078.59,1326.94,1062.57,1330.76,1046.58C1334.57,1030.59,1347.64,1020.68,1347.64,1020.68C1347.64,1020.68,1354.52,1036.71,1350.71,1052.7Z" fill="rgb(108,99,255)" stroke="none" stroke-width="1"/><path id="moonlight-svg-a-img2-vector_21" d="M1345.1,1049.26C1334.63,1060.82,1333.35,1078.58,1333.35,1078.58C1333.35,1078.58,1349.05,1077.61,1359.52,1066.05C1369.98,1054.5,1371.26,1036.73,1371.26,1036.73C1371.26,1036.73,1355.57,1037.7,1345.1,1049.26Z" fill="rgb(108,99,255)" stroke="none" stroke-width="1"/></g></g><g id="moonlight-svg-a-img2-small-leaf1_tr" transform="translate(856.207,1079.02) rotate(-28)"><g id="moonlight-svg-a-img2-small-leaf1" transform="translate(-856.207,-1079.019999)"><path id="moonlight-svg-a-img2-vector_22" d="M873.902,1051.53C870.087,1067.53,857.019,1077.43,857.019,1077.43C857.019,1077.43,850.137,1061.41,853.952,1045.41C857.767,1029.42,870.835,1019.52,870.835,1019.52C870.835,1019.52,877.717,1035.54,873.902,1051.53Z" fill="rgb(108,99,255)" stroke="none" stroke-width="1"/><path id="moonlight-svg-a-img2-vector_23" d="M868.296,1048.1C857.827,1059.65,856.548,1077.42,856.548,1077.42C856.548,1077.42,872.243,1076.44,882.712,1064.89C893.18,1053.33,894.459,1035.57,894.459,1035.57C894.459,1035.57,878.764,1036.54,868.296,1048.1Z" fill="rgb(108,99,255)" stroke="none" stroke-width="1"/></g></g><g id="moonlight-svg-a-img2-small-leaf3_tr" transform="translate(1753.874514,1079.995117) rotate(-28)"><g id="moonlight-svg-a-img2-small-leaf3" transform="translate(-1753.874512,-1079.995112)"><path id="moonlight-svg-a-img2-vector_24" d="M1774.87,1052.7C1771.05,1068.69,1757.99,1078.59,1757.99,1078.59C1757.99,1078.59,1751.1,1062.57,1754.92,1046.58C1758.73,1030.59,1771.8,1020.68,1771.8,1020.68C1771.8,1020.68,1778.68,1036.71,1774.87,1052.7Z" fill="rgb(108,99,255)" stroke="none" stroke-width="1"/><path id="moonlight-svg-a-img2-vector_25" d="M1769.26,1049.26C1758.79,1060.82,1757.52,1078.58,1757.52,1078.58C1757.52,1078.58,1773.21,1077.61,1783.68,1066.05C1794.15,1054.5,1795.43,1036.73,1795.43,1036.73C1795.43,1036.73,1779.73,1037.7,1769.26,1049.26Z" fill="rgb(108,99,255)" stroke="none" stroke-width="1"/></g></g></g><path id="moonlight-svg-a-img2-vector_26" d="M135.073,1066.66C133.628,1066.66,132.242,1066.01,131.22,1064.85C130.198,1063.7,129.624,1062.12,129.624,1060.49C129.624,1058.85,130.198,1057.28,131.22,1056.12C132.242,1054.96,133.628,1054.31,135.073,1054.31L179.875,1054.31C178.43,1057.58,178.192,1061.38,179.214,1064.85C180.236,1068.33,182.433,1071.2,185.324,1072.84C185.324,1074.48,184.75,1076.05,183.728,1077.21C182.706,1078.37,181.32,1079.02,179.875,1079.02L135.073,1079.02C133.628,1079.02,132.242,1078.37,131.22,1077.21C130.198,1076.05,129.624,1074.48,129.624,1072.84C129.624,1071.2,130.198,1069.63,131.22,1068.47C132.242,1067.31,133.628,1066.66,135.073,1066.66L135.073,1066.66Z" opacity="0.1" fill="rgb(242,242,242)" stroke="none" stroke-width="1"/><path id="moonlight-svg-a-img2-vector_27" d="M241.557,1053.92C240.792,1087.61,258.766,1079.02,280.557,1079.02C302.348,1079.02,320.322,1083.32,320.469,1053.92C320.541,1039.44,302.674,1036.29,280.883,1036.29C259.092,1036.29,241.886,1039.44,241.557,1053.92Z" fill="rgb(63,61,86)" stroke="none" stroke-width="1"/><path id="moonlight-svg-a-img2-vector_28" d="M190.578,1067.23C190.93,1067.02,191.312,1066.88,191.708,1066.82C193.685,1066.46,195.644,1065.99,197.577,1065.4C199.517,1064.8,201.3,1063.67,202.771,1062.12C203.32,1061.39,203.933,1060.72,204.601,1060.13C204.939,1059.84,205.345,1059.67,205.768,1059.64C206.191,1059.6,206.614,1059.71,206.986,1059.94C207.063,1060.01,207.133,1060.08,207.197,1060.17C207.468,1059.96,207.739,1059.76,208.009,1059.56C209.451,1058.48,210.9,1057.42,212.356,1056.37L212.415,1056.32C212.373,1056.06,212.372,1055.8,212.411,1055.54C212.665,1054.68,213.179,1053.96,213.861,1053.5C211.982,1053.48,210.093,1053.28,208.226,1053.06C206.448,1053.09,204.729,1052.33,203.443,1050.94C203.249,1050.7,203.132,1050.39,203.109,1050.06C203.107,1049.4,203.714,1048.96,204.259,1048.71C204.983,1048.37,205.736,1048.12,206.506,1047.96C207.043,1047.87,207.576,1047.74,208.099,1047.58C208.565,1047.39,209.014,1047.15,209.441,1046.86C210.366,1046.28,211.292,1045.7,212.217,1045.13C212.612,1044.91,212.974,1044.62,213.291,1044.28C213.763,1043.72,213.971,1042.92,214.452,1042.36C214.894,1041.85,216.685,1041.17,216.941,1042.22C217.042,1042.64,216.656,1043.1,216.609,1043.56C217.229,1043.12,217.87,1042.72,218.531,1042.36C218.495,1042.27,218.447,1042.19,218.416,1042.09C221.488,1039.3,223.929,1035.72,225.535,1031.64C225.26,1031.65,224.985,1031.67,224.71,1031.66C224.241,1031.71,223.772,1031.58,223.376,1031.29C223.213,1031.13,223.085,1030.92,223.003,1030.69C222.921,1030.45,222.887,1030.2,222.903,1029.95C222.939,1029.45,223.047,1028.97,223.222,1028.51C223.615,1027.13,224.241,1025.86,225.066,1024.76C225.864,1023.88,226.775,1023.15,227.766,1022.58L227.926,1022.48C227.993,1022.25,228.055,1022.02,228.136,1021.79C228.734,1020.38,229.411,1019.01,230.162,1017.7C231.218,1015.51,231.997,1013.15,232.477,1010.71C232.654,1009.22,233.157,1007.81,233.939,1006.6C235.384,1004.79,237.862,1004.84,239.999,1005.11C241.218,1005.27,242.431,1005.47,243.644,1005.69C243.655,1005.65,243.656,1005.62,243.668,1005.58C243.82,1005.26,243.915,1004.9,243.947,1004.54C243.917,1004.24,243.859,1003.95,243.775,1003.66C243.71,1003.31,243.725,1002.94,243.817,1002.6C243.91,1002.25,244.078,1001.94,244.306,1001.68C244.356,1001.63,244.406,1001.57,244.456,1001.51C244.323,1001.15,244.2,1000.79,244.089,1000.43C243.988,1000.29,243.912,1000.14,243.867,999.969C243.821,999.8,243.806,999.623,243.822,999.448C243.602,998.568,243.486,997.659,243.476,996.745C243.725,994.724,243.789,992.68,243.668,990.645C243.731,990.141,243.892,989.659,244.141,989.235C244.185,989.167,244.259,989.136,244.31,989.076C243.941,988.521,243.514,988.019,243.039,987.58C242.106,986.763,241.108,986.046,240.058,985.438C239.806,985.281,239.455,985.169,239.215,984.989C238.846,985.06,238.474,985.102,238.1,985.117C236.713,985.126,235.344,984.75,234.114,984.022C232.884,983.293,231.83,982.234,231.044,980.937C230.258,979.64,229.764,978.145,229.605,976.582C229.446,975.019,229.627,973.435,230.133,971.969C229.748,971.863,229.386,971.672,229.067,971.405C228.748,971.138,228.48,970.802,228.277,970.417C227.861,969.598,227.612,968.684,227.549,967.742C227.482,967.381,227.48,967.008,227.541,966.645C227.602,966.282,227.726,965.936,227.905,965.628C228.224,965.278,228.59,964.987,228.99,964.768C229.541,964.378,230.003,963.847,230.341,963.217C230.58,962.769,230.751,962.279,230.967,961.815C231.324,960.956,231.882,960.225,232.58,959.701C233.278,959.176,234.09,958.878,234.926,958.84C235.722,958.954,236.509,959.132,237.282,959.372C239.933,959.899,242.815,958.309,245.274,959.549C245.879,959.883,246.442,960.308,246.946,960.814C247.639,961.461,248.304,962.143,248.943,962.86C249.497,963.396,249.917,964.089,250.16,964.868C250.494,966.291,249.699,967.88,250.205,969.236C250.378,969.624,250.584,969.992,250.821,970.334C251.379,971.262,250.773,974.884,250.834,976.005C250.906,976.554,250.783,977.112,250.492,977.559C250.418,977.643,250.335,977.715,250.243,977.774C254.368,979.442,258.402,981.386,262.323,983.595C267.032,986.178,270.94,990.317,273.533,995.467C274.198,996.939,274.705,998.496,275.307,1000C276.11,1002.01,277.081,1003.93,278.051,1005.84C279.235,1008.17,280.42,1010.51,281.788,1012.71C282.569,1013.87,283.291,1015.09,283.952,1016.34C283.97,1016.53,283.974,1016.71,283.966,1016.9C283.94,1017.07,283.955,1017.25,284.01,1017.41C284.069,1017.51,284.147,1017.59,284.236,1017.65C284.325,1017.7,284.425,1017.74,284.528,1017.75L284.56,1017.84C284.869,1018.97,285.125,1020.12,285.328,1021.28C285.732,1023.13,286.376,1024.91,286.624,1026.79C286.768,1027.02,286.848,1027.3,286.854,1027.59C286.86,1027.87,286.791,1028.15,286.657,1028.4C286.523,1028.64,286.329,1028.83,286.099,1028.95C285.869,1029.07,285.614,1029.11,285.364,1029.07C283.945,1029.78,282.579,1030.62,281.216,1031.46C281.236,1031.58,281.267,1031.69,281.28,1031.8C281.325,1033,281.071,1034.18,280.547,1035.22C280.023,1036.26,279.25,1037.11,278.318,1037.67C276.438,1038.76,274.379,1039.4,272.272,1039.54C271.455,1039.65,270.633,1039.7,269.815,1039.79C268.621,1040.55,267.35,1041.13,266.03,1041.53C265.742,1041.63,265.445,1041.68,265.145,1041.69C264.743,1041.66,264.353,1041.53,264.003,1041.3C263.652,1041.08,263.351,1040.77,263.12,1040.4C256.079,1040.84,249.018,1040.67,241.999,1039.91C240.056,1039.39,238.013,1039.75,236.298,1040.91C234.776,1042.31,234.47,1044.8,233.338,1046.62C232.516,1047.74,231.593,1048.76,230.584,1049.66C228.579,1052.07,226.807,1054.71,225.296,1057.54C223.771,1060.41,221.561,1062.72,218.925,1064.21C218.45,1063.36,217.762,1062.68,216.947,1062.26C216.736,1062.12,216.535,1061.95,216.328,1061.8C216.049,1062.31,215.726,1062.79,215.361,1063.23C215.09,1063.56,214.82,1063.91,214.566,1064.28C214.574,1064.28,214.581,1064.27,214.589,1064.27C214.958,1064.34,215.082,1064.86,215.124,1065.28C215.286,1066.89,215.448,1068.5,215.61,1070.11C215.668,1070.43,215.648,1070.76,215.554,1071.07C215.379,1071.4,215.108,1071.65,214.788,1071.79C213.47,1072.5,212.044,1072.93,210.586,1073.04C209.853,1073.1,209.115,1073.08,208.383,1073.15C207.182,1073.33,205.993,1073.6,204.824,1073.96C201.642,1074.78,198.371,1075.07,195.115,1074.82C194.443,1074.8,193.777,1074.66,193.146,1074.4C192.399,1073.99,191.736,1073.41,191.202,1072.69C190.523,1071.96,190.02,1071.04,189.74,1070.03C189.609,1069.52,189.619,1068.98,189.769,1068.48C189.919,1067.98,190.202,1067.54,190.578,1067.23L190.578,1067.23Z" fill="rgb(63,61,86)" stroke="none" stroke-width="1"/><path id="moonlight-svg-a-img2-vector_29" d="M242.963,959.372C242.649,959.31,242.339,959.213,242.029,959.122C243.026,958.982,244.038,959.093,244.993,959.447C244.316,959.517,243.634,959.492,242.963,959.372L242.963,959.372Z" fill="rgb(255,101,132)" stroke="none" stroke-width="1"/><path id="moonlight-svg-a-img2-vector_30" d="M236.647,961.816C236.432,962.279,236.261,962.769,236.021,963.217C235.684,963.847,235.221,964.378,234.67,964.768C234.271,964.987,233.905,965.278,233.586,965.628C233.407,965.936,233.283,966.282,233.222,966.645C233.16,967.008,233.163,967.381,233.23,967.742C233.293,968.684,233.542,969.598,233.958,970.417C234.161,970.802,234.429,971.138,234.748,971.405C235.066,971.672,235.429,971.864,235.814,971.97C235.231,973.533,235.029,975.245,235.23,976.926C235.431,978.608,236.027,980.197,236.955,981.528C237.884,982.859,239.111,983.883,240.508,984.492C241.905,985.1,243.42,985.272,244.896,984.989C245.137,985.169,245.487,985.281,245.739,985.438C246.789,986.046,247.787,986.763,248.72,987.58C249.195,988.019,249.622,988.521,249.991,989.076C249.94,989.136,249.866,989.167,249.822,989.235C249.573,989.659,249.412,990.141,249.348,990.645C249.47,992.68,249.406,994.725,249.157,996.745C249.167,997.66,249.283,998.569,249.503,999.449C249.487,999.624,249.502,999.801,249.548,999.969C249.593,1000.14,249.669,1000.29,249.77,1000.43C249.882,1000.79,250.004,1001.15,250.137,1001.51C250.087,1001.57,250.037,1001.63,249.986,1001.68C249.759,1001.94,249.591,1002.25,249.498,1002.6C249.406,1002.94,249.391,1003.31,249.456,1003.66C249.54,1003.95,249.598,1004.24,249.628,1004.54C249.596,1004.9,249.501,1005.26,249.349,1005.58C249.337,1005.62,249.336,1005.65,249.325,1005.69C248.112,1005.47,246.899,1005.27,245.68,1005.11C245.079,1005.03,244.475,1004.99,243.871,1004.98C243.916,1004.84,243.942,1004.69,243.947,1004.54C243.917,1004.24,243.859,1003.95,243.776,1003.66C243.71,1003.31,243.725,1002.94,243.817,1002.6C243.91,1002.25,244.078,1001.94,244.306,1001.68C244.356,1001.63,244.406,1001.57,244.456,1001.51C244.323,1001.15,244.2,1000.79,244.089,1000.43C243.988,1000.29,243.913,1000.14,243.867,999.969C243.821,999.801,243.806,999.624,243.822,999.449C243.602,998.569,243.486,997.66,243.476,996.745C243.725,994.725,243.789,992.68,243.668,990.645C243.731,990.141,243.892,989.659,244.141,989.235C244.185,989.167,244.259,989.136,244.31,989.076C243.941,988.521,243.514,988.019,243.039,987.58C242.106,986.763,241.108,986.046,240.058,985.438C239.806,985.281,239.456,985.169,239.215,984.989C238.847,985.06,238.474,985.102,238.1,985.117C236.713,985.126,235.344,984.75,234.114,984.022C232.884,983.293,231.83,982.234,231.044,980.938C230.258,979.641,229.764,978.145,229.605,976.582C229.446,975.019,229.627,973.435,230.133,971.97C229.748,971.864,229.386,971.672,229.067,971.405C228.748,971.138,228.48,970.802,228.277,970.417C227.861,969.598,227.612,968.684,227.549,967.742C227.482,967.381,227.48,967.008,227.541,966.645C227.602,966.282,227.726,965.936,227.905,965.628C228.224,965.278,228.59,964.987,228.99,964.768C229.541,964.378,230.003,963.847,230.34,963.217C230.58,962.769,230.751,962.279,230.967,961.816C231.324,960.957,231.882,960.225,232.58,959.701C233.278,959.176,234.09,958.878,234.927,958.84C235.722,958.955,236.509,959.132,237.282,959.372C237.716,959.451,238.155,959.483,238.595,959.471C237.769,960.036,237.096,960.847,236.647,961.816L236.647,961.816Z" fill="rgb(255,101,132)" stroke="none" stroke-width="1"/><path id="moonlight-svg-a-img2-vector_31" d="M190.578,1067.23C190.93,1067.02,191.313,1066.88,191.708,1066.82C193.685,1066.46,195.644,1065.99,197.577,1065.4C199.517,1064.8,201.301,1063.67,202.771,1062.12C203.32,1061.39,203.933,1060.72,204.601,1060.13C204.94,1059.84,205.345,1059.67,205.768,1059.64C206.191,1059.6,206.614,1059.71,206.986,1059.94C207.063,1060.01,207.133,1060.08,207.198,1060.17C207.468,1059.96,207.739,1059.76,208.009,1059.56C209.451,1058.48,210.9,1057.42,212.356,1056.37L212.415,1056.32C212.373,1056.06,212.372,1055.8,212.411,1055.54C212.665,1054.68,213.179,1053.96,213.861,1053.5C211.982,1053.48,210.093,1053.28,208.226,1053.06C206.448,1053.09,204.729,1052.33,203.443,1050.94C203.249,1050.7,203.132,1050.39,203.11,1050.06C203.107,1049.4,203.714,1048.96,204.259,1048.71C204.983,1048.37,205.736,1048.12,206.506,1047.96C207.044,1047.87,207.576,1047.74,208.099,1047.58C208.565,1047.39,209.014,1047.15,209.441,1046.86C210.366,1046.28,211.292,1045.7,212.217,1045.13C212.612,1044.91,212.974,1044.62,213.291,1044.28C213.763,1043.72,213.971,1042.92,214.452,1042.36C214.895,1041.85,216.685,1041.17,216.941,1042.22C217.042,1042.64,216.656,1043.1,216.609,1043.56C217.229,1043.12,217.87,1042.72,218.531,1042.36C218.495,1042.27,218.447,1042.19,218.416,1042.09C221.488,1039.3,223.929,1035.72,225.535,1031.64C225.26,1031.65,224.985,1031.67,224.71,1031.66C224.241,1031.71,223.772,1031.58,223.376,1031.29C223.213,1031.13,223.085,1030.92,223.003,1030.69C222.921,1030.45,222.887,1030.2,222.903,1029.95C222.939,1029.45,223.047,1028.97,223.222,1028.51C223.615,1027.13,224.241,1025.86,225.066,1024.76C225.864,1023.88,226.775,1023.15,227.766,1022.58L227.926,1022.48C227.993,1022.25,228.055,1022.02,228.136,1021.79C228.734,1020.38,229.411,1019.02,230.162,1017.7C231.218,1015.51,231.997,1013.15,232.477,1010.71C232.654,1009.22,233.157,1007.81,233.939,1006.6C235.384,1004.79,237.862,1004.84,239.999,1005.11C240.476,1005.17,240.95,1005.26,241.427,1005.34C240.736,1005.57,240.112,1006,239.619,1006.6C238.837,1007.81,238.335,1009.22,238.158,1010.71C237.678,1013.15,236.899,1015.51,235.842,1017.7C235.091,1019.02,234.415,1020.38,233.817,1021.79C233.735,1022.02,233.674,1022.25,233.606,1022.48L233.447,1022.58C232.455,1023.15,231.545,1023.88,230.746,1024.76C229.922,1025.86,229.296,1027.13,228.903,1028.51C228.727,1028.97,228.619,1029.45,228.584,1029.95C228.568,1030.2,228.602,1030.45,228.684,1030.69C228.766,1030.92,228.893,1031.13,229.057,1031.29C229.452,1031.58,229.922,1031.71,230.39,1031.66C230.666,1031.67,230.941,1031.65,231.216,1031.64C229.61,1035.72,227.169,1039.3,224.097,1042.09C224.128,1042.19,224.176,1042.27,224.211,1042.36C223.551,1042.72,222.909,1043.12,222.29,1043.56C222.337,1043.1,222.723,1042.64,222.622,1042.22C222.365,1041.17,220.575,1041.85,220.132,1042.36C219.652,1042.92,219.443,1043.72,218.972,1044.28C218.655,1044.62,218.292,1044.91,217.898,1045.13C216.972,1045.7,216.047,1046.28,215.121,1046.86C214.695,1047.15,214.246,1047.39,213.78,1047.58C213.257,1047.74,212.724,1047.87,212.186,1047.96C211.417,1048.12,210.664,1048.37,209.939,1048.71C209.395,1048.96,208.788,1049.4,208.79,1050.06C208.812,1050.39,208.93,1050.7,209.123,1050.94C210.41,1052.33,212.129,1053.09,213.907,1053.06C215.774,1053.28,217.663,1053.48,219.541,1053.5C218.86,1053.96,218.346,1054.68,218.092,1055.54C218.053,1055.8,218.054,1056.06,218.096,1056.32L218.037,1056.37C216.581,1057.42,215.132,1058.48,213.69,1059.56C213.419,1059.76,213.149,1059.96,212.878,1060.17C212.814,1060.08,212.744,1060.01,212.667,1059.94C212.295,1059.71,211.872,1059.6,211.449,1059.64C211.026,1059.67,210.62,1059.84,210.282,1060.13C209.614,1060.72,209.001,1061.39,208.452,1062.12C206.981,1063.67,205.198,1064.8,203.257,1065.4C201.325,1065.99,199.366,1066.46,197.388,1066.82C196.993,1066.88,196.611,1067.02,196.259,1067.23C195.883,1067.54,195.6,1067.98,195.45,1068.48C195.3,1068.98,195.29,1069.53,195.42,1070.03C195.701,1071.05,196.204,1071.96,196.883,1072.69C197.417,1073.41,198.079,1073.99,198.826,1074.4C199.289,1074.59,199.774,1074.72,200.268,1074.75C198.554,1074.93,196.831,1074.95,195.115,1074.82C194.443,1074.8,193.777,1074.66,193.146,1074.4C192.399,1073.99,191.736,1073.41,191.202,1072.69C190.523,1071.96,190.02,1071.05,189.74,1070.03C189.609,1069.53,189.619,1068.98,189.769,1068.48C189.92,1067.98,190.202,1067.54,190.578,1067.23L190.578,1067.23Z" fill="rgb(255,101,132)" stroke="none" stroke-width="1"/><path id="moonlight-svg-a-img2-vector_32" d="M222.08,1061.86C221.987,1061.95,221.895,1062.05,221.799,1062.15C221.869,1062.03,221.946,1061.92,222.009,1061.8L222.08,1061.86Z" fill="rgb(255,101,132)" stroke="none" stroke-width="1"/><g id="moonlight-svg-a-img2-fire_tr" transform="translate(157.4735,1062.040353) rotate(0)"><g id="moonlight-svg-a-img2-fire" transform="translate(-157.4735,-1062.040342)"><path id="moonlight-svg-a-img2-vector_33" d="M137.495,1044.01C137.495,1066.76,146.44,1060.49,157.474,1060.49C168.508,1060.49,177.453,1066.76,177.453,1044.01C177.453,1021.26,157.474,978.106,157.474,978.106C157.474,978.106,137.495,1021.26,137.495,1044.01Z" fill="rgb(255,101,132)" stroke="none" stroke-width="1"/><path id="moonlight-svg-a-img2-vector_34" d="M148.392,1052.71C148.392,1063.05,152.458,1060.2,157.474,1060.2C162.489,1060.2,166.555,1063.05,166.555,1052.71C166.555,1042.37,157.474,1022.76,157.474,1022.76C157.474,1022.76,148.392,1042.37,148.392,1052.71Z" opacity="0.1" fill="rgb(0,0,0)" stroke="none" stroke-width="1"/></g></g><g id="moonlight-svg-a-img2-fire-flame3_to" transform="translate(146.348672,991.662638)"><path id="moonlight-svg-a-img2-fire-flame3" d="M132.431,983.225C132.431,983.225,128.28,978.332,128.363,973.531Z" transform="translate(-130.387672,-978.378)" fill="rgb(255,101,132)" stroke="none" stroke-width="1"/></g><g id="moonlight-svg-a-img2-fire-flame5_to" transform="translate(170.340997,992.126145)"><path id="moonlight-svg-a-img2-fire-flame5" d="M174.967,942.447C174.967,942.447,176.7,935.947,180.433,933.68Z" transform="translate(-177.699997,-938.063507)" fill="rgb(255,101,132)" stroke="none" stroke-width="1"/></g><g id="moonlight-svg-a-img2-fire-flame8_to" transform="translate(179.897001,1032.346967)"><path id="moonlight-svg-a-img2-fire-flame8" d="M216.626,854.415C216.626,854.415,218.359,847.916,222.092,845.649Z" transform="translate(-219.359001,-850.031982)" fill="rgb(255,101,132)" stroke="none" stroke-width="1"/></g><g id="moonlight-svg-a-img2-fire-flame4_to" transform="translate(163.822504,978.106016)"><path id="moonlight-svg-a-img2-fire-flame4" d="M167.393,972.507C167.393,972.507,169.126,966.007,172.858,963.74Z" transform="translate(-170.125504,-968.123505)" fill="rgb(255,101,132)" stroke="none" stroke-width="1"/></g><g id="moonlight-svg-a-img2-fire-flame7_to" transform="translate(167.439,986.6485)"><path id="moonlight-svg-a-img2-fire-flame7" d="M173.074,867.298C173.074,867.298,174.807,860.798,178.539,858.531Z" transform="translate(-176.6905,-862.9145)" fill="rgb(255,101,132)" stroke="none" stroke-width="1"/></g><g id="moonlight-svg-a-img2-fire-flame6_to" transform="translate(175.805999,1010.438721)"><path id="moonlight-svg-a-img2-fire-flame6" d="M184.435,905.946C184.435,905.946,186.168,899.446,189.901,897.179Z" transform="translate(-187.167999,-901.5625)" fill="rgb(255,101,132)" stroke="none" stroke-width="1"/></g><g id="moonlight-svg-a-img2-fire-flame1_to" transform="translate(134.46556,1048.475001)"><path id="moonlight-svg-a-img2-fire-flame1" d="M136.218,1049.79C136.218,1049.79,132.067,1044.89,132.15,1040.09Z" transform="translate(-134.18344,-1046.912833)" fill="rgb(255,101,132)" stroke="none" stroke-width="1"/></g><g id="moonlight-svg-a-img2-fire-flame2_to" transform="translate(134.465481,1022.760013)"><path id="moonlight-svg-a-img2-fire-flame2" d="M128.644,1013.29C128.644,1013.29,124.493,1008.39,124.576,1003.59Z" transform="translate(-126.609379,-1008.440002)" fill="rgb(255,101,132)" stroke="none" stroke-width="1"/></g><g id="moonlight-svg-a-img2-object"><path id="moonlight-svg-a-img2-vector_35" d="M180.496,1007.15L225.943,1024.32L225.343,1026.36L179.897,1009.18L180.496,1007.15Z" fill="rgb(255,101,132)" stroke="none" stroke-width="1"/><path id="moonlight-svg-a-img2-vector_36" d="M183.796,1009.2C182.09,1016.75,184.954,1014.95,187.566,1015.56C190.179,1016.17,189.665,1018.9,193.255,1011.42C195.739,1006.24,192.097,1005.66,189.485,1005.05C186.873,1004.44,184.961,1004.03,183.796,1009.2Z" fill="rgb(255,101,132)" stroke="none" stroke-width="1"/></g><g id="moonlight-svg-a-img2-moonlight" transform="matrix(1 0 0 1 0.000001 0.000001)"><g id="moonlight-svg-a-img2-vector_37_tr" transform="translate(1272.875,198.372) rotate(0)"><path id="moonlight-svg-a-img2-vector_37" d="M818.527,596.476L818.529,596.474L859.845,553.398L860.217,553.503L876.761,536.449L877.56,536.185L876.698,535.813L1052.65,352.379L1222.57,175.222L1309.16,227.298L1316.24,229.076L1212.47,406.643L819.777,1078.69L356,1078.69L818.527,596.476Z" transform="translate(-1272.875,-198.371999)" opacity="0.1" fill="rgb(242,242,242)" stroke="none" stroke-width="1"/></g><path id="moonlight-svg-a-img2-vector_38" d="M1272.88,256.344C1244.64,256.344,1221.75,230.389,1221.75,198.372C1221.75,166.355,1244.64,140.4,1272.88,140.4C1301.11,140.4,1324,166.355,1324,198.372C1324,230.389,1301.11,256.344,1272.88,256.344Z" fill="rgb(242,242,242)" stroke="none" stroke-width="1"/></g></g><clipPath id="moonlight-svg-a-img2-clip0_0-1"><rect id="moonlight-svg-a-img2-rect3" width="1920" height="1080" rx="0" ry="0" transform="matrix(-1 0 0 1 1920 0)" fill="rgb(255,255,255)" stroke="none" stroke-width="1"/></clipPath></g></svg>