<svg width="48" height="48" viewBox="0 0 48 48" fill="none" xmlns="http://www.w3.org/2000/svg">
<g id="responsive-svgrepo-com 1">
<path id="Vector" d="M4.62744 11.0651H39.3639C40.5051 11.0651 41.4389 11.9988 41.4389 13.1401V34.5383H2.55255V13.1401C2.55255 11.9989 3.48621 11.0651 4.62744 11.0651Z" fill="#666666"/>
<path id="Vector_2" d="M3.96155 33.1292H40.0301V13.1401C40.0301 12.7767 39.7276 12.4742 39.3642 12.4742H4.62774C4.26436 12.4742 3.96183 12.7767 3.96183 13.1401V33.1292H3.96155Z" fill="white"/>
<path id="Vector_3" d="M4.70795 15.3258H39.2836V23.3296H4.70795V15.3258Z" fill="#ECF0F1"/>
<path id="Vector_4" d="M0.663978 34.5383H43.3276V35.7366C43.3276 36.3956 42.7883 36.9349 42.1293 36.9349H1.86202C1.20304 36.9349 0.663696 36.3956 0.663696 35.7366V34.5383H0.663978Z" fill="#B6B6B8"/>
<path id="Vector_5" d="M17.7375 34.9762H26.2538L25.3415 35.5821H18.6496L17.7373 34.9762H17.7375Z" fill="#919191"/>
<path id="Vector_6" d="M31.0434 18.5997H43.8023C44.2069 18.5997 44.5349 18.9277 44.5349 19.3323V36.2022C44.5349 36.6069 44.2069 36.9348 43.8023 36.9348H31.0434C30.6388 36.9348 30.3109 36.6069 30.3109 36.2022V19.3323C30.3109 18.9277 30.6389 18.5997 31.0434 18.5997Z" fill="#666666"/>
<path id="Vector_7" d="M31.2015 19.8973H43.6444C43.6914 19.8973 43.7295 19.9354 43.7295 19.9824V35.1332C43.7295 35.1802 43.6914 35.2182 43.6444 35.2182H31.2015C31.1545 35.2182 31.1165 35.1802 31.1165 35.1332V19.9825C31.1165 19.9355 31.1545 19.8973 31.2015 19.8973Z" fill="white"/>
<path id="Vector_8" d="M37.4232 36.5236C37.687 36.5236 37.9009 36.3097 37.9009 36.0459C37.9009 35.782 37.687 35.5681 37.4232 35.5681C37.1593 35.5681 36.9454 35.782 36.9454 36.0459C36.9454 36.3097 37.1593 36.5236 37.4232 36.5236Z" fill="#B6B6B8"/>
<path id="Vector_9" d="M31.7804 21.7951H43.0658V28.4467H31.7804V21.7951Z" fill="#ECF0F1"/>
<path id="Vector_10" d="M41.0533 25.1623H46.9644C47.1698 25.1623 47.3362 25.3288 47.3362 25.5341V36.5631C47.3362 36.7685 47.1697 36.9349 46.9644 36.9349H41.0533C40.8479 36.9349 40.6815 36.7684 40.6815 36.5631V25.5341C40.6815 25.3288 40.8479 25.1623 41.0533 25.1623Z" fill="#666666"/>
<path id="Vector_11" d="M41.3302 26.2642H46.6876C46.7079 26.2642 46.7243 26.2806 46.7243 26.3009V35.7961C46.7243 35.8164 46.7079 35.8328 46.6876 35.8328H41.3302C41.31 35.8328 41.2936 35.8164 41.2936 35.7961V26.3008C41.2936 26.2806 41.3101 26.2642 41.3302 26.2642Z" fill="white"/>
<g id="Group">
<path id="Vector_12" d="M44.0093 36.6702C44.195 36.6702 44.3455 36.5197 44.3455 36.3341C44.3455 36.1484 44.195 35.9979 44.0093 35.9979C43.8236 35.9979 43.6731 36.1484 43.6731 36.3341C43.6731 36.5197 43.8236 36.6702 44.0093 36.6702Z" fill="#B6B6B8"/>
<path id="Vector_13" d="M43.1096 25.769H44.9081C44.9535 25.769 44.9902 25.8058 44.9902 25.8512V25.8514C44.9902 25.8968 44.9535 25.9336 44.9081 25.9336H43.1096C43.0642 25.9336 43.0275 25.8968 43.0275 25.8514V25.8512C43.0275 25.8058 43.0642 25.769 43.1096 25.769Z" fill="#B6B6B8"/>
</g>
<path id="Vector_14" d="M40.0302 14.7029H3.96155V13.1401C3.96155 12.7767 4.26408 12.4742 4.62746 12.4742H39.3639C39.7273 12.4742 40.0298 12.7767 40.0298 13.1401V14.7028H40.0302V14.7029Z" fill="#21D0C3"/>
<path id="Vector_15" d="M19.3539 13.112H37.8302C37.9664 13.112 38.0773 13.2232 38.0773 13.3592V13.8177C38.0773 13.9539 37.9661 14.0648 37.8302 14.0648H19.3539C19.2177 14.0648 19.1068 13.9536 19.1068 13.8177V13.3592C19.1068 13.2232 19.2179 13.112 19.3539 13.112Z" fill="white"/>
<g id="Group_2">
<path id="Vector_16" d="M5.49605 13.0951C5.80468 13.0951 6.05499 13.3452 6.05499 13.654C6.05499 13.9628 5.80468 14.213 5.49605 14.213C5.18715 14.213 4.93665 13.9628 4.93665 13.654C4.93665 13.3452 5.18696 13.0951 5.49605 13.0951Z" fill="#ECF0F1"/>
<path id="Vector_17" d="M7.70256 13.0951C8.01146 13.0951 8.2615 13.3452 8.2615 13.654C8.2615 13.9628 8.01137 14.213 7.70256 14.213C7.39393 14.213 7.14362 13.9628 7.14362 13.654C7.14362 13.3452 7.39393 13.0951 7.70256 13.0951Z" fill="#ECF0F1"/>
<path id="Vector_18" d="M9.90963 13.0951C10.2183 13.0951 10.4686 13.3452 10.4686 13.654C10.4686 13.9628 10.2183 14.213 9.90963 14.213C9.60044 14.213 9.35022 13.9628 9.35022 13.654C9.35022 13.3452 9.60044 13.0951 9.90963 13.0951Z" fill="#ECF0F1"/>
</g>
<path id="Vector_19" d="M8.54528 25.2606C9.43619 25.2606 10.1582 25.9826 10.1582 26.8735C10.1582 27.7641 9.43619 28.4864 8.54528 28.4864C7.65465 28.4864 6.93268 27.7641 6.93268 26.8735C6.93268 25.9826 7.65465 25.2606 8.54528 25.2606Z" fill="#FF5B62"/>
<path id="Vector_20" d="M16.8778 25.2606C17.7684 25.2606 18.4904 25.9826 18.4904 26.8735C18.4904 27.7641 17.7684 28.4864 16.8778 28.4864C15.9872 28.4864 15.2652 27.7641 15.2652 26.8735C15.2652 25.9826 15.9872 25.2606 16.8778 25.2606Z" fill="#21D0C3"/>
<g id="Group_3">
<path id="Vector_21" d="M6.23132 29.1779H10.8598V29.429H6.23132V29.1779V29.1779ZM6.23132 30.7557H9.34009V31.0068H6.23132V30.7557ZM6.23132 29.9669H10.8598V30.2178H6.23132V29.9669V29.9669Z" fill="#DCE3DB"/>
<path id="Vector_22" d="M14.564 29.1779H19.1921V29.429H14.564V29.1779ZM14.564 30.7557H17.673V31.0068H14.564V30.7557ZM14.564 29.9669H19.1921V30.2178H14.564V29.9669Z" fill="#DCE3DB"/>
</g>
<path id="Vector_23" d="M25.7227 25.2606C26.6133 25.2606 27.3353 25.9826 27.3353 26.8735C27.3353 27.7641 26.6133 28.4864 25.7227 28.4864C24.8321 28.4864 24.1101 27.7641 24.1101 26.8735C24.11 25.9826 24.832 25.2606 25.7227 25.2606Z" fill="#FAD24D"/>
<path id="Vector_24" d="M23.4088 29.1779H28.0369V29.429H23.4088V29.1779ZM23.4088 30.7557H26.5178V31.0068H23.4088V30.7557ZM23.4088 29.9669H28.0369V30.2178H23.4088V29.9669Z" fill="#DCE3DB"/>
<path id="Vector_25" d="M34.028 29.405C34.5807 29.405 35.0291 29.8533 35.0291 30.406C35.0291 30.9588 34.581 31.4071 34.028 31.4071C33.4752 31.4071 33.0269 30.9588 33.0269 30.406C33.0269 29.8532 33.475 29.405 34.028 29.405Z" fill="#FF5B62"/>
<path id="Vector_26" d="M32.5916 31.8365H35.4643V32.0396H32.5916V31.8365ZM32.5916 33.113H34.5213V33.3161H32.5916V33.113V33.113ZM32.5916 32.4745H35.4643V32.6777H32.5916V32.4745Z" fill="#DCE3DB"/>
<path id="Vector_27" d="M37.9352 29.405C38.488 29.405 38.9363 29.8533 38.9363 30.406C38.9363 30.9588 38.488 31.4071 37.9352 31.4071C37.3825 31.4071 36.9341 30.9588 36.9341 30.406C36.9341 29.8532 37.3825 29.405 37.9352 29.405Z" fill="#21D0C3"/>
<path id="Vector_28" d="M36.4989 31.8365H39.3716V32.0396H36.4989V31.8365ZM36.4989 33.113H38.4286V33.3161H36.4989V33.113V33.113ZM36.4989 32.4745H39.3716V32.6777H36.4989V32.4745Z" fill="#DCE3DB"/>
<path id="Vector_29" d="M43.7296 21.3547H31.1162V19.9826C31.1162 19.9356 31.1543 19.8975 31.2012 19.8975H43.6442C43.6912 19.8975 43.7292 19.9356 43.7292 19.9826V21.3547H43.7296Z" fill="#21D0C3"/>
<g id="Group_4">
<path id="Vector_30" d="M32.0512 20.312C32.2327 20.312 32.3795 20.4588 32.3795 20.64C32.3795 20.8212 32.2327 20.9681 32.0512 20.9681C31.87 20.9681 31.7231 20.8212 31.7231 20.64C31.7231 20.4588 31.8701 20.312 32.0512 20.312Z" fill="#ECF0F1"/>
<path id="Vector_31" d="M32.9748 20.312C33.156 20.312 33.3029 20.4588 33.3029 20.64C33.3029 20.8212 33.156 20.9681 32.9748 20.9681C32.7936 20.9681 32.6468 20.8212 32.6468 20.64C32.6468 20.4588 32.7936 20.312 32.9748 20.312Z" fill="#ECF0F1"/>
<path id="Vector_32" d="M33.8985 20.312C34.0797 20.312 34.2265 20.4588 34.2265 20.64C34.2265 20.8212 34.0797 20.9681 33.8985 20.9681C33.7172 20.9681 33.5704 20.8212 33.5704 20.64C33.5704 20.4588 33.7174 20.312 33.8985 20.312Z" fill="#ECF0F1"/>
</g>
<path id="Vector_33" d="M35.7395 20.3853H43.2404C43.2957 20.3853 43.3407 20.4448 43.3407 20.5176V20.763C43.3407 20.8358 43.2957 20.8953 43.2404 20.8953H35.7395C35.6842 20.8953 35.6392 20.8358 35.6392 20.763V20.5176C35.6392 20.4448 35.6842 20.3853 35.7395 20.3853Z" fill="white"/>
<path id="Vector_34" d="M46.7243 26.9009H41.2936V26.3009C41.2936 26.2804 41.3101 26.2642 41.3302 26.2642H46.6876C46.7079 26.2642 46.7243 26.2804 46.7243 26.3009V26.9009Z" fill="#21D0C3"/>
<path id="Vector_35" d="M41.6772 26.3719C41.7809 26.3719 41.8647 26.4557 41.8647 26.5595C41.8647 26.663 41.7809 26.7471 41.6772 26.7471C41.5737 26.7471 41.4896 26.663 41.4896 26.5595C41.4896 26.4557 41.5737 26.3719 41.6772 26.3719Z" fill="white"/>
<g id="Group_5">
<path id="Vector_36" d="M42.2052 26.3719C42.309 26.3719 42.3928 26.4557 42.3928 26.5595C42.3928 26.663 42.309 26.7471 42.2052 26.7471C42.1014 26.7471 42.0176 26.663 42.0176 26.5595C42.0176 26.4557 42.1016 26.3719 42.2052 26.3719Z" fill="#ECF0F1"/>
<path id="Vector_37" d="M42.7331 26.3719C42.8368 26.3719 42.9207 26.4557 42.9207 26.5595C42.9207 26.663 42.8368 26.7471 42.7331 26.7471C42.6296 26.7471 42.5455 26.663 42.5455 26.5595C42.5455 26.4557 42.6296 26.3719 42.7331 26.3719Z" fill="#ECF0F1"/>
</g>
<path id="Vector_38" d="M43.4956 26.3962H46.5152C46.5557 26.3962 46.5884 26.429 46.5884 26.4694V26.6656C46.5884 26.7061 46.5556 26.7389 46.5152 26.7389H43.4956C43.4551 26.7389 43.4224 26.7061 43.4224 26.6656V26.4694C43.4224 26.4291 43.4552 26.3962 43.4956 26.3962Z" fill="white"/>
<path id="Vector_39" d="M41.557 27.1065H46.4609V29.9969H41.557V27.1065Z" fill="#ECF0F1"/>
<path id="Vector_40" d="M44.1529 30.5895C44.6556 30.5895 45.0631 30.9969 45.0631 31.4998C45.0631 32.0025 44.6556 32.4101 44.1529 32.4101C43.6502 32.4101 43.2428 32.0027 43.2428 31.4998C43.2429 30.9971 43.6503 30.5895 44.1529 30.5895Z" fill="#FAD24D"/>
<path id="Vector_41" d="M42.5732 33.0729H45.7326V33.2962H42.5732V33.0729ZM42.5732 34.477H44.6958V34.7003H42.5732V34.477ZM42.5732 33.7749H45.7326V33.9982H42.5732V33.7749Z" fill="#DCE3DB"/>
<path id="Vector_42" d="M3.78033 36.9349H44.2199C44.0859 37.144 43.9478 37.3498 43.8076 37.5543H4.19293C4.05277 37.3498 3.9144 37.1439 3.78033 36.9349Z" fill="#EDB937"/>
<path id="Vector_43" d="M35.8278 19.121H39.0184C39.0638 19.121 39.1005 19.1577 39.1005 19.2031V19.2034C39.1005 19.2488 39.0638 19.2855 39.0184 19.2855H35.8278C35.7824 19.2855 35.7457 19.2488 35.7457 19.2034V19.2031C35.7457 19.1578 35.7824 19.121 35.8278 19.121Z" fill="#B6B6B8"/>
</g>
</svg>
